# AST/ASF file generated using VICON BodyLanguage
# -----------------------------------------------
:version 1.10
:name VICON
:units
  mass 1.0
  length 0.45
  angle deg
:documentation
   .ast/.asf automatically generated from VICON data using
   VICON BodyBuilder and BodyLanguage model FoxedUp or BRILLIANT.MOD
:root
   order TX TY TZ RX RY RZ
   axis XYZ
   position 0 0 0  
   orientation 0 0 0 
:bonedata
  begin
     id 1 
     name lhipjoint
     direction 0.621563 -0.714088 0.322083 
     length 2.21591 
     axis 0 0 0  XYZ
  end
  begin
     id 2 
     name lfemur
     direction 0.34202 -0.939693 0  
     length 6.84027  
     axis 0 0 20  XYZ
    dof rx ry rz
    limits (-160.0 20.0)
           (-70.0 70.0)
           (-60.0 70.0)
  end
  begin
     id 3 
     name ltibia
     direction 0.34202 -0.939693 0   
     length 6.74005   
     axis 0 0 20   XYZ
    dof rx
    limits (-10.0 170.0)
  end
  begin
     id 4 
     name lfoot
     direction 0.0348332 -0.0960526 0.994767   
     length 1.54672   
     axis -90 7.62852e-016 20   XYZ
    dof rx rz
    limits (-45.0 90.0)
           (-70.0 20.0)
  end
  begin
     id 5 
     name ltoes
     direction 1.53538e-011 -4.22089e-011 1   
     length 0.792077   
     axis -90 7.62852e-016 20   XYZ
    dof rx
    limits (-90.0 20.0)
  end
  begin
     id 6 
     name rhipjoint
     direction -0.648389 -0.693984 0.313015   
     length 2.2801  
     axis 0 0 0  XYZ 
  end
  begin
     id 7 
     name rfemur
     direction -0.34202 -0.939693 0   
     length 6.62341   
     axis 0 0 -20   XYZ
    dof rx ry rz
    limits (-160.0 20.0)
           (-70.0 70.0)
           (-70.0 60.0)
  end
  begin
     id 8 
     name rtibia
     direction -0.34202 -0.939693 0   
     length 6.63811   
     axis 0 0 -20   XYZ
    dof rx
    limits (-10.0 170.0)
 end
 begin
     id 9 
     name rfoot
     direction -0.0578404 -0.158915 0.985596   
     length 1.64992  
     axis -90 -7.62852e-016 -20   XYZ
    dof rx rz
    limits (-45.0 90.0)
           (-20.0 70.0)
  end
  begin
     id 10 
     name rtoes
     direction -1.53571e-011 -4.21911e-011 1   
     length 0.839909   
     axis -90 -7.62852e-016 -20   XYZ
    dof rx
    limits (-90.0 20.0)
  end
  begin
     id 11 
     name lowerback
     direction 0.000554472 0.999997 -0.00226605   
     length 1.81878   
     axis 0 0 0   XYZ
    dof rx ry rz
    limits (-20.0 45.0)
           (-30.0 30.0)
           (-30.0 30.0)
  end
  begin
     id 12 
     name upperback
     direction 0.00177008 0.999761 -0.021771   
     length 1.81977   
     axis 0 0 0   XYZ
    dof rx ry rz
    limits (-20.0 45.0)
           (-30.0 30.0)
           (-30.0 30.0)
  end
  begin
     id 13 
     name thorax
     direction 0.00134147 0.999799 -0.0200243   
     length 1.81422   
     axis 0 0 0   XYZ
    dof rx ry rz
    limits (-20.0 45.0)
           (-30.0 30.0)
           (-30.0 30.0)
  end
  begin
     id 14 
     name lowerneck
     direction -0.0819714 0.987506 0.134583   
     length 1.68295   
     axis 0 0 0   XYZ
    dof rx ry rz
    limits (-20.0 45.0)
           (-30.0 30.0)
           (-30.0 30.0)
  end
  begin
     id 15 
     name upperneck
     direction 0.0867129 0.969666 -0.228538   
     length 1.71188   
     axis 0 0 0   XYZ
    dof rx ry rz
    limits (-20.0 45.0)
           (-30.0 30.0)
           (-30.0 30.0)
  end
  begin
     id 16
     name head
     direction 0.023699 0.995021 -0.0968101  
     length 1.73365  
     axis 0 0 0   XYZ
    dof rx ry rz
    limits (-20.0 45.0)
           (-30.0 30.0)
           (-30.0 30.0)
  end
  begin
     id 17 
     name lclavicle
     direction 0.912847 0.398248 0.090054  
     length 3.56518  
     axis 0 0 0   XYZ
    dof ry rz
    limits (-20.0 10.0)
           (0.0 20.0)
  end
  begin
     id 18 
     name lhumerus
     direction 1 -4.48961e-011 -4.05442e-028   
     length 4.05444   
     axis 180 -30 -90   XYZ
    dof rx ry rz
    limits (-60.0 90.0)
           (-90.0 90.0)
           (-90.0 90.0)
  end
  begin
     id 19
     name lradius
     direction 1 -4.4897e-011 1.54979e-027   
     length 3.21205   
     axis 180 -30 -90   XYZ
    dof rx
    limits (-10.0 170.0)
  end
  begin
     id 20
     name lwrist
     direction 1 -4.48979e-011 1.55564e-027   
     length 1.60602   
     axis -1.61768e-015 90 90   XYZ
    dof ry
    limits (-180.0 0.0)
 end
  begin
     id 21 
     name lhand
     direction 1 -4.48877e-011 3.11128e-027   
     length 0.707407   
     axis -1.98526e-015 90 90   XYZ
    dof rx rz
    limits (-90.0 90.0)
           (-45.0 45.0)
  end
  begin
     id 22 
     name lfingers
     direction 1 -4.49016e-011 6.22255e-027   
     length 0.57033   
     axis -3.97052e-015 90 90   XYZ
    dof rx
    limits (0.0 90.0)
  end
  begin
     id 23
     name lthumb
     direction 0.707107 -6.35011e-011 0.707107   
     length 0.818883   
     axis -90 45 2.85299e-015   XYZ
    dof rx rz
    limits (-45.0 45.0)
           (-45.0 45.0)
  end
  begin
     id 24 
     name rclavicle
     direction -0.930415 0.353791 0.0957082   
     length 3.54688  
     axis 0 0 0   XYZ 
    dof ry rz
    limits (-10.0 20.0)
           (-20.0 0.0)
  end
  begin
     id 25 
     name rhumerus
     direction -1 -4.48952e-011 -8.4136e-018  
     length 3.74048   
     axis 180 30 90   XYZ
    dof rx ry rz
    limits (-90.0 60.0)
           (-90.0 90.0)
           (-90.0 90.0)
  end
  begin
     id 26 
     name rradius
     direction -1 -4.48964e-011 1.66692e-027   
     length 3.1603   
     axis 180 30 90   XYZ
    dof rx
    limits (-10.0 170.0)
  end
  begin
     id 27 
     name rwrist
     direction -1 -4.49008e-011 1.55564e-027   
     length 1.58015   
     axis -1.61768e-015 -90 -90   XYZ
    dof ry
    limits (-180.0 0.0)
  end
  begin
     id 28
     name rhand
     direction -1 -4.48922e-011 3.11128e-027   
     length 0.717028   
     axis -1.98526e-015 -90 -90   XYZ
    dof rx rz
    limits (-90.0 90.0)
           (-45.0 45.0)
  end
  begin
     id 29
     name rfingers
     direction -1 -4.49002e-011 6.22255e-027   
     length 0.578086   
     axis -3.97052e-015 -90 -90   XYZ
    dof rx
    limits (0.0 90.0)
  end
  begin
     id 30
     name rthumb
     direction -0.707107 -6.34899e-011 0.707107   
     length 0.83002   
     axis -90 -45 -2.85299e-015   XYZ
    dof rx rz
    limits (-45.0 45.0)
           (-45.0 45.0)
  end
:hierarchy
  begin
    root lhipjoint rhipjoint lowerback
    lhipjoint lfemur
    lfemur ltibia
    ltibia lfoot
    lfoot ltoes
    rhipjoint rfemur
    rfemur rtibia
    rtibia rfoot
    rfoot rtoes
    lowerback upperback
    upperback thorax
    thorax lowerneck lclavicle rclavicle
    lowerneck upperneck
    upperneck head
    lclavicle lhumerus
    lhumerus lradius
    lradius lwrist
    lwrist lhand lthumb
    lhand lfingers
    rclavicle rhumerus
    rhumerus rradius
    rradius rwrist
    rwrist rhand rthumb
    rhand rfingers
  end

#!OML:ASF G:\acrobat\cartwheel_test\acrobat_wednesday\Session 1\acrobatwednesday.ASF
:FULLY-SPECIFIED
:DEGREES
83
root 18.8621 16.4496 0.322791 95.7179 86.2973 87.4328
lowerback -8.12107 -0.63013 -2.29373
upperback -0.467179 -0.583852 -0.537445
thorax 4.08891 -0.317566 0.665978
lowerneck -14.6137 -15.51 -14.7416
upperneck 20.2882 -20.5069 10.193
head 11.6317 -9.41204 2.66277
rclavicle 3.45388e-015 1.78906e-014
rhumerus -34.0598 -21.4886 -73.9486
rradius 22.318
rwrist 38.8411
rhand -21.5144 10.0991
rfingers 7.12502
rthumb 4.87763 -19.8248
lclavicle 3.45388e-015 1.78906e-014
lhumerus -27.3535 7.3855 80.2626
lradius 17.576
lwrist 11.1903
lhand -21.5402 -13.7914
lfingers 7.12502
lthumb 4.85276 16.133
rfemur 4.06186 18.2595 20.8873
rtibia -3.26242
rfoot -32.6102 20.0537
rtoes 6.50368
lfemur -1.63383 -4.76364 -25.2552
ltibia 3.61472
lfoot 15.2901 -7.53188
ltoes -37.1987
84
root 18.8691 16.4489 0.325057 96.1165 86.2563 87.8699
lowerback -8.18189 -0.632839 -2.31546
upperback -0.472363 -0.583424 -0.536425
thorax 4.11784 -0.317836 0.678778
lowerneck -14.9734 -15.2882 -14.4877
upperneck 20.6661 -20.1341 9.79704
head 11.7119 -9.24592 2.5422
rclavicle -1.86361e-016 2.98177e-015
rhumerus -33.9563 -21.6631 -74.0037
rradius 22.2141
rwrist 39.093
rhand -21.1691 10.101
rfingers 7.12502
rthumb 5.21108 -19.8149
lclavicle -1.86361e-016 2.98177e-015
lhumerus -27.3243 7.60719 80.2435
lradius 17.4247
lwrist 11.0105
lhand -21.5652 -13.9136
lfingers 7.12502
lthumb 4.82866 16.0113
rfemur 4.1878 18.4082 20.8842
rtibia -3.36828
rfoot -32.8713 19.9884
rtoes 6.85817
lfemur -1.55729 -4.77875 -25.2922
ltibia 3.59097
lfoot 15.2963 -7.46621
ltoes -37.2552
85
root 18.8775 16.4475 0.327451 96.3315 86.2008 88.1033
lowerback -8.26262 -0.632517 -2.35081
upperback -0.514665 -0.576148 -0.552386
thorax 4.11911 -0.313935 0.682524
lowerneck -15.3253 -14.95 -14.2241
upperneck 21.1188 -19.5672 9.27028
head 11.7804 -9.00772 2.41402
rclavicle 2.8948e-015 9.74045e-015
rhumerus -34.0198 -21.677 -74.186
rradius 22.2997
rwrist 39.1622
rhand -20.8234 9.77386
rfingers 7.12502
rthumb 5.54482 -20.1336
lclavicle 2.8948e-015 9.74045e-015
lhumerus -27.4219 7.71497 80.2258
lradius 17.4008
lwrist 10.8797
lhand -21.6784 -13.651
lfingers 7.12502
lthumb 4.71932 16.2764
rfemur 4.32045 18.4202 20.8429
rtibia -3.51419
rfoot -32.9225 19.9076
rtoes 6.89065
lfemur -1.50327 -4.79116 -25.3566
ltibia 3.60778
lfoot 15.3104 -7.37484
ltoes -37.3273
86
root 18.8847 16.4476 0.330135 96.0863 86.2044 87.83
lowerback -8.36155 -0.614572 -2.306
upperback -0.593586 -0.552225 -0.572306
thorax 4.09109 -0.299509 0.639207
lowerneck -15.8384 -14.4479 -13.8029
upperneck 21.758 -18.757 8.59047
head 11.8911 -8.65778 2.24653
rclavicle -5.26779e-015 8.94531e-015
rhumerus -34.055 -21.518 -74.5159
rradius 22.3124
rwrist 39.1456
rhand -20.9109 9.1482
rfingers 7.12502
rthumb 5.46036 -20.7614
lclavicle -5.26779e-015 8.94531e-015
lhumerus -27.572 7.63561 80.2551
lradius 17.4044
lwrist 10.8376
lhand -22.056 -12.8865
lfingers 7.12502
lthumb 4.35467 17.0487
rfemur 4.38836 18.4021 20.8566
rtibia -3.65189
rfoot -32.8528 19.9496
rtoes 6.63628
lfemur -1.50932 -4.78451 -25.3422
ltibia 3.63268
lfoot 15.3747 -7.32903
ltoes -37.4277
87
root 18.892 16.4482 0.333139 95.7188 86.2271 87.4721
lowerback -8.43451 -0.582062 -2.24301
upperback -0.661825 -0.51203 -0.582736
thorax 4.05915 -0.277012 0.597615
lowerneck -16.4698 -13.886 -13.14
upperneck 22.4987 -17.8573 7.69756
head 12.015 -8.2705 1.97582
rclavicle -2.6339e-015 -4.96962e-015
rhumerus -34.0529 -21.569 -74.7614
rradius 22.2017
rwrist 39.257
rhand -21.0207 8.42727
rfingers 7.12502
rthumb 5.35434 -21.4851
lclavicle -2.6339e-015 -4.96962e-015
lhumerus -27.5704 7.78843 80.2439
lradius 17.1015
lwrist 10.4785
lhand -22.1498 -12.8439
lfingers 7.12502
lthumb 4.26412 17.0932
rfemur 4.45672 18.2678 20.8974
rtibia -3.68722
rfoot -32.6496 19.972
rtoes 6.39753
lfemur -1.4459 -4.75389 -25.2949
ltibia 3.58852
lfoot 15.4202 -7.31876
ltoes -37.4426
88
root 18.9008 16.4466 0.335076 95.8538 86.1988 87.638
lowerback -8.52968 -0.54926 -2.23061
upperback -0.727832 -0.465885 -0.591914
thorax 4.04234 -0.252556 0.586306
lowerneck -17.1049 -13.2186 -12.4453
upperneck 23.2621 -16.8506 6.92884
head 12.1653 -7.82026 1.76063
rclavicle 3.85145e-015 3.37934e-015
rhumerus -34.1121 -21.899 -74.8316
rradius 22.0615
rwrist 39.6929
rhand -21.0198 7.84959
rfingers 7.12502
rthumb 5.35518 -22.0627
lclavicle 3.85145e-015 3.37934e-015
lhumerus -27.4527 8.31257 80.1629
lradius 16.5061
lwrist 9.63888
lhand -21.6003 -13.7101
lfingers 7.12502
lthumb 4.79476 16.2156
rfemur 4.55521 18.1083 20.8883
rtibia -3.69453
rfoot -32.3383 20.1647
rtoes 5.84633
lfemur -1.34424 -4.72332 -25.3175
ltibia 3.51412
lfoot 15.3641 -7.32094
ltoes -37.5024
89
root 18.911 16.4433 0.336732 95.9789 86.1722 87.7709
lowerback -8.68742 -0.513358 -2.21368
upperback -0.785163 -0.414624 -0.587687
thorax 4.06947 -0.226025 0.586556
lowerneck -17.9033 -12.4615 -11.7927
upperneck 24.2202 -15.7273 6.26538
head 12.4465 -7.30183 1.59544
rclavicle -1.49089e-016 9.93923e-016
rhumerus -34.0588 -22.0349 -74.983
rradius 21.8565
rwrist 40.0057
rhand -21.0446 7.4172
rfingers 7.12502
rthumb 5.33124 -22.4957
lclavicle -1.49089e-016 9.93923e-016
lhumerus -27.3388 8.87063 80.1245
lradius 15.9326
lwrist 8.68185
lhand -20.9032 -13.8967
lfingers 7.12502
lthumb 5.46785 16.0127
rfemur 4.61379 17.9126 20.8518
rtibia -3.71158
rfoot -32.0087 20.3257
rtoes 5.005
lfemur -1.27959 -4.60553 -25.3331
ltibia 3.46238
lfoot 15.2506 -7.25927
ltoes -37.5861
90
root 18.9158 16.4415 0.339444 95.2012 86.2622 86.9839
lowerback -8.78271 -0.468384 -2.12394
upperback -0.853166 -0.363741 -0.521035
thorax 4.05046 -0.198741 0.611174
lowerneck -18.9132 -11.6556 -11.0358
upperneck 25.4622 -14.5014 5.421
head 12.8704 -6.74453 1.3501
rclavicle 1.20513e-015 -3.57812e-015
rhumerus -33.8342 -22.2246 -75.1506
rradius 21.4969
rwrist 40.4023
rhand -20.8302 7.12396
rfingers 7.12502
rthumb 5.53832 -22.7837
lclavicle 1.20513e-015 -3.57812e-015
lhumerus -27.2035 9.64202 80.08
lradius 15.3294
lwrist 7.46827
lhand -20.3727 -13.5825
lfingers 7.12502
lthumb 5.97996 16.3131
rfemur 4.45256 17.4959 20.8516
rtibia -3.50947
rfoot -31.5417 20.0419
rtoes 5.0285
lfemur -1.29873 -4.4475 -25.1823
ltibia 3.47578
lfoot 15.2145 -7.16356
ltoes -37.6064
91
root 18.9155 16.4409 0.342374 94.2493 86.336 86.0188
lowerback -8.8204 -0.434782 -2.06746
upperback -0.933405 -0.326235 -0.458687
thorax 3.98709 -0.1781 0.648804
lowerneck -19.9347 -10.7919 -10.2304
upperneck 26.8442 -13.2091 4.58933
head 13.3807 -6.15528 1.1097
rclavicle -1.59028e-015 -7.35503e-015
rhumerus -33.5907 -22.7389 -75.2489
rradius 21.0187
rwrist 41.2285
rhand -20.5289 7.11218
rfingers 7.12502
rthumb 5.82922 -22.7876
lclavicle -1.59028e-015 -7.35503e-015
lhumerus -26.987 10.7214 79.9275
lradius 14.51
lwrist 5.7707
lhand -19.9666 -13.9706
lfingers 7.12502
lthumb 6.37204 15.9136
rfemur 4.24917 17.1669 20.8332
rtibia -3.29489
rfoot -31.2034 19.6826
rtoes 5.55293
lfemur -1.37133 -4.41963 -25.055
ltibia 3.56916
lfoot 15.2641 -7.12368
ltoes -37.7382
92
root 18.9174 16.4406 0.345989 93.5334 86.3727 85.3369
lowerback -8.91295 -0.408656 -2.03357
upperback -0.957039 -0.293851 -0.41831
thorax 4.01336 -0.161619 0.675235
lowerneck -20.8727 -9.89337 -9.54181
upperneck 28.1721 -11.9072 4.02204
head 13.9219 -5.54722 0.993886
rclavicle 1.6027e-015 4.77083e-015
rhumerus -33.3514 -23.2544 -75.3679
rradius 20.5162
rwrist 42.1464
rhand -20.4351 7.37869
rfingers 7.12502
rthumb 5.91979 -22.5186
lclavicle 1.6027e-015 4.77083e-015
lhumerus -26.8004 11.3439 79.9466
lradius 13.8854
lwrist 4.44759
lhand -19.6464 -14.436
lfingers 7.12502
lthumb 6.68119 15.4386
rfemur 4.27131 17.1723 20.8884
rtibia -3.31403
rfoot -31.2359 19.5468
rtoes 5.48391
lfemur -1.35993 -4.45524 -24.9868
ltibia 3.66428
lfoot 15.3542 -7.06232
ltoes -37.7993
